<?xml version="1.0" encoding="UTF-8"?>
<svg width="12px" height="12px" viewBox="0 0 12 12" version="1.1" xmlns="http://www.w3.org/2000/svg" xmlns:xlink="http://www.w3.org/1999/xlink">
    <title>处理中收起</title>
    <g id="跨链" stroke="none" stroke-width="1" fill="none" fill-rule="evenodd">
        <g id="记录调整-进度" transform="translate(-1509.000000, -540.000000)">
            <g id="编组-8" transform="translate(1400.000000, 460.000000)">
                <g id="处理中" transform="translate(68.000000, 77.000000)">
                    <g id="处理中收起" transform="translate(41.000000, 3.000000)">
                        <rect id="矩形" x="0" y="0" width="12" height="12"></rect>
                        <path d="M7.3,3.06666667 L9.8,6.4 C10.1313708,6.8418278 10.0418278,7.46862915 9.6,7.8 C9.42690383,7.92982213 9.21637021,8 9,8 L4,8 C3.44771525,8 3,7.55228475 3,7 C3,6.78362979 3.07017787,6.57309617 3.2,6.4 L5.7,3.06666667 C6.03137085,2.62483887 6.6581722,2.53529582 7.1,2.86666667 C7.17580567,2.92352092 7.24314575,2.990861 7.3,3.06666667 Z" id="三角形" fill="#E02020" transform="translate(6.500000, 5.000000) rotate(-180.000000) translate(-6.500000, -5.000000) "></path>
                    </g>
                </g>
            </g>
        </g>
    </g>
</svg>